<mxfile host="Electron" modified="2024-07-07T12:41:29.183Z" agent="Mozilla/5.0 (Macintosh; Intel Mac OS X 10_15_7) AppleWebKit/537.36 (KHTML, like Gecko) draw.io/24.6.4 Chrome/124.0.6367.207 Electron/30.0.6 Safari/537.36" etag="1XG-3r6ccPzG_KgZ_D6H" version="24.6.4" type="device">
  <diagram name="Page-1" id="jmn1GH59fsU1YKqvnprx">
    <mxGraphModel dx="1122" dy="855" grid="0" gridSize="1" guides="1" tooltips="1" connect="1" arrows="1" fold="1" page="1" pageScale="1" pageWidth="827" pageHeight="1169" background="#ffffff" math="0" shadow="0">
      <root>
        <mxCell id="0" />
        <mxCell id="1" parent="0" />
        <mxCell id="w0b1r6UTEm6VGoaTHcAD-6" value="Customer" style="whiteSpace=wrap;html=1;align=center;fillColor=#f5f5f5;fontColor=#333333;strokeColor=#666666;" vertex="1" parent="1">
          <mxGeometry x="347" y="197" width="100" height="35" as="geometry" />
        </mxCell>
        <mxCell id="w0b1r6UTEm6VGoaTHcAD-7" value="Name" style="ellipse;whiteSpace=wrap;html=1;align=center;fillColor=#f5f5f5;strokeColor=#666666;fontColor=#333333;" vertex="1" parent="1">
          <mxGeometry x="335" y="102" width="61" height="35" as="geometry" />
        </mxCell>
        <mxCell id="w0b1r6UTEm6VGoaTHcAD-8" value="F_name" style="ellipse;whiteSpace=wrap;html=1;align=center;fillColor=#f5f5f5;fontColor=#333333;strokeColor=#666666;" vertex="1" parent="1">
          <mxGeometry x="275" y="39" width="60" height="36" as="geometry" />
        </mxCell>
        <mxCell id="w0b1r6UTEm6VGoaTHcAD-9" value="&lt;font color=&quot;#000033&quot;&gt;L_name&lt;/font&gt;" style="ellipse;whiteSpace=wrap;html=1;align=center;fillColor=#f5f5f5;strokeColor=#666666;fontColor=#333333;" vertex="1" parent="1">
          <mxGeometry x="353" y="39" width="59" height="36" as="geometry" />
        </mxCell>
        <mxCell id="w0b1r6UTEm6VGoaTHcAD-10" value="DOB" style="ellipse;whiteSpace=wrap;html=1;align=center;fillColor=#f5f5f5;strokeColor=#666666;fontColor=#333333;" vertex="1" parent="1">
          <mxGeometry x="427" y="75" width="60" height="31" as="geometry" />
        </mxCell>
        <mxCell id="w0b1r6UTEm6VGoaTHcAD-11" value="Address" style="ellipse;whiteSpace=wrap;html=1;align=center;fillColor=#f5f5f5;fontColor=#333333;strokeColor=#666666;" vertex="1" parent="1">
          <mxGeometry x="237" y="126" width="57" height="34" as="geometry" />
        </mxCell>
        <mxCell id="w0b1r6UTEm6VGoaTHcAD-12" value="City" style="ellipse;whiteSpace=wrap;html=1;align=center;fillColor=#f5f5f5;fontColor=#333333;strokeColor=#666666;" vertex="1" parent="1">
          <mxGeometry x="138" y="96" width="64" height="33" as="geometry" />
        </mxCell>
        <mxCell id="w0b1r6UTEm6VGoaTHcAD-13" value="State" style="ellipse;whiteSpace=wrap;html=1;align=center;fillColor=#f5f5f5;fontColor=#333333;strokeColor=#666666;" vertex="1" parent="1">
          <mxGeometry x="202" y="34" width="55" height="34" as="geometry" />
        </mxCell>
        <mxCell id="w0b1r6UTEm6VGoaTHcAD-14" value="Pin_code" style="ellipse;whiteSpace=wrap;html=1;align=center;fillColor=#f5f5f5;fontColor=#333333;strokeColor=#666666;" vertex="1" parent="1">
          <mxGeometry x="127" y="46" width="63" height="40" as="geometry" />
        </mxCell>
        <mxCell id="w0b1r6UTEm6VGoaTHcAD-26" value="" style="endArrow=none;html=1;rounded=0;strokeColor=#000033;entryX=0.249;entryY=0.068;entryDx=0;entryDy=0;entryPerimeter=0;exitX=0.993;exitY=0.583;exitDx=0;exitDy=0;exitPerimeter=0;" edge="1" parent="1" source="w0b1r6UTEm6VGoaTHcAD-14" target="w0b1r6UTEm6VGoaTHcAD-11">
          <mxGeometry relative="1" as="geometry">
            <mxPoint x="184" y="77" as="sourcePoint" />
            <mxPoint x="257" y="129" as="targetPoint" />
          </mxGeometry>
        </mxCell>
        <mxCell id="w0b1r6UTEm6VGoaTHcAD-28" value="" style="endArrow=none;html=1;rounded=0;strokeColor=#000033;entryX=0.243;entryY=0.064;entryDx=0;entryDy=0;entryPerimeter=0;" edge="1" parent="1" target="w0b1r6UTEm6VGoaTHcAD-11">
          <mxGeometry relative="1" as="geometry">
            <mxPoint x="202" y="115" as="sourcePoint" />
            <mxPoint x="257" y="129" as="targetPoint" />
          </mxGeometry>
        </mxCell>
        <mxCell id="w0b1r6UTEm6VGoaTHcAD-29" value="" style="endArrow=none;html=1;rounded=0;strokeColor=#000033;exitX=0.599;exitY=0.97;exitDx=0;exitDy=0;exitPerimeter=0;entryX=0.249;entryY=0.085;entryDx=0;entryDy=0;entryPerimeter=0;" edge="1" parent="1" source="w0b1r6UTEm6VGoaTHcAD-13" target="w0b1r6UTEm6VGoaTHcAD-11">
          <mxGeometry relative="1" as="geometry">
            <mxPoint x="220" y="68" as="sourcePoint" />
            <mxPoint x="255" y="127" as="targetPoint" />
            <Array as="points" />
          </mxGeometry>
        </mxCell>
        <mxCell id="w0b1r6UTEm6VGoaTHcAD-30" value="" style="endArrow=none;html=1;rounded=0;strokeColor=#000033;exitX=1;exitY=1;exitDx=0;exitDy=0;" edge="1" parent="1" source="w0b1r6UTEm6VGoaTHcAD-8">
          <mxGeometry relative="1" as="geometry">
            <mxPoint x="228" y="67" as="sourcePoint" />
            <mxPoint x="344" y="106" as="targetPoint" />
            <Array as="points" />
          </mxGeometry>
        </mxCell>
        <mxCell id="w0b1r6UTEm6VGoaTHcAD-31" value="" style="endArrow=none;html=1;rounded=0;strokeColor=#000033;exitX=0;exitY=1;exitDx=0;exitDy=0;entryX=0;entryY=0;entryDx=0;entryDy=0;" edge="1" parent="1" source="w0b1r6UTEm6VGoaTHcAD-9" target="w0b1r6UTEm6VGoaTHcAD-7">
          <mxGeometry relative="1" as="geometry">
            <mxPoint x="325" y="68" as="sourcePoint" />
            <mxPoint x="345" y="106" as="targetPoint" />
            <Array as="points" />
          </mxGeometry>
        </mxCell>
        <mxCell id="w0b1r6UTEm6VGoaTHcAD-32" value="" style="endArrow=none;html=1;rounded=0;strokeColor=#000033;entryX=0.24;entryY=0.014;entryDx=0;entryDy=0;entryPerimeter=0;exitX=0.171;exitY=0.871;exitDx=0;exitDy=0;exitPerimeter=0;" edge="1" parent="1" source="w0b1r6UTEm6VGoaTHcAD-10" target="w0b1r6UTEm6VGoaTHcAD-6">
          <mxGeometry relative="1" as="geometry">
            <mxPoint x="442" y="99" as="sourcePoint" />
            <mxPoint x="347" y="109" as="targetPoint" />
            <Array as="points" />
          </mxGeometry>
        </mxCell>
        <mxCell id="w0b1r6UTEm6VGoaTHcAD-33" value="" style="endArrow=none;html=1;rounded=0;strokeColor=#000033;" edge="1" parent="1">
          <mxGeometry relative="1" as="geometry">
            <mxPoint x="371" y="137" as="sourcePoint" />
            <mxPoint x="372" y="197" as="targetPoint" />
            <Array as="points">
              <mxPoint x="371" y="167" />
            </Array>
          </mxGeometry>
        </mxCell>
        <mxCell id="w0b1r6UTEm6VGoaTHcAD-34" value="" style="endArrow=none;html=1;rounded=0;strokeColor=#000033;exitX=1;exitY=1;exitDx=0;exitDy=0;" edge="1" parent="1" source="w0b1r6UTEm6VGoaTHcAD-11">
          <mxGeometry relative="1" as="geometry">
            <mxPoint x="372" y="136" as="sourcePoint" />
            <mxPoint x="372" y="197" as="targetPoint" />
            <Array as="points" />
          </mxGeometry>
        </mxCell>
        <mxCell id="w0b1r6UTEm6VGoaTHcAD-35" value="make" style="shape=rhombus;perimeter=rhombusPerimeter;whiteSpace=wrap;html=1;align=center;fillColor=#f5f5f5;fontColor=#333333;strokeColor=#666666;" vertex="1" parent="1">
          <mxGeometry x="503" y="188" width="60" height="47" as="geometry" />
        </mxCell>
        <mxCell id="w0b1r6UTEm6VGoaTHcAD-38" value="" style="endArrow=none;html=1;rounded=0;strokeColor=#000033;exitX=0;exitY=0.5;exitDx=0;exitDy=0;" edge="1" parent="1" source="w0b1r6UTEm6VGoaTHcAD-35">
          <mxGeometry relative="1" as="geometry">
            <mxPoint x="372" y="138" as="sourcePoint" />
            <mxPoint x="447" y="218" as="targetPoint" />
            <Array as="points">
              <mxPoint x="447" y="211" />
            </Array>
          </mxGeometry>
        </mxCell>
        <mxCell id="w0b1r6UTEm6VGoaTHcAD-39" value="Payment" style="whiteSpace=wrap;html=1;align=center;fillColor=#f5f5f5;fontColor=#333333;strokeColor=#666666;" vertex="1" parent="1">
          <mxGeometry x="616" y="198" width="100" height="30" as="geometry" />
        </mxCell>
        <mxCell id="w0b1r6UTEm6VGoaTHcAD-40" value="" style="endArrow=none;html=1;rounded=0;strokeColor=#000033;entryX=1;entryY=0.5;entryDx=0;entryDy=0;" edge="1" parent="1" target="w0b1r6UTEm6VGoaTHcAD-35">
          <mxGeometry relative="1" as="geometry">
            <mxPoint x="616" y="212" as="sourcePoint" />
            <mxPoint x="555" y="184" as="targetPoint" />
            <Array as="points" />
          </mxGeometry>
        </mxCell>
        <mxCell id="w0b1r6UTEm6VGoaTHcAD-41" value="Age" style="ellipse;whiteSpace=wrap;html=1;align=center;dashed=1;fillColor=#f5f5f5;fontColor=#333333;strokeColor=#666666;" vertex="1" parent="1">
          <mxGeometry x="267" y="86" width="60" height="36" as="geometry" />
        </mxCell>
        <mxCell id="w0b1r6UTEm6VGoaTHcAD-42" value="" style="endArrow=none;html=1;rounded=0;strokeColor=#000033;exitX=0.76;exitY=0.902;exitDx=0;exitDy=0;exitPerimeter=0;" edge="1" parent="1" source="w0b1r6UTEm6VGoaTHcAD-41">
          <mxGeometry relative="1" as="geometry">
            <mxPoint x="301" y="156" as="sourcePoint" />
            <mxPoint x="371" y="196" as="targetPoint" />
            <Array as="points" />
          </mxGeometry>
        </mxCell>
        <mxCell id="w0b1r6UTEm6VGoaTHcAD-44" value="Cust_id" style="ellipse;whiteSpace=wrap;html=1;align=center;fontStyle=4;fillColor=#f5f5f5;fontColor=#333333;strokeColor=#666666;" vertex="1" parent="1">
          <mxGeometry x="453" y="109" width="66" height="35" as="geometry" />
        </mxCell>
        <mxCell id="w0b1r6UTEm6VGoaTHcAD-45" value="" style="endArrow=none;html=1;rounded=0;strokeColor=#000033;exitX=0;exitY=1;exitDx=0;exitDy=0;" edge="1" parent="1" source="w0b1r6UTEm6VGoaTHcAD-44">
          <mxGeometry relative="1" as="geometry">
            <mxPoint x="438" y="103" as="sourcePoint" />
            <mxPoint x="372" y="196" as="targetPoint" />
            <Array as="points" />
          </mxGeometry>
        </mxCell>
        <mxCell id="w0b1r6UTEm6VGoaTHcAD-46" value="Phone_no" style="ellipse;shape=doubleEllipse;margin=3;whiteSpace=wrap;html=1;align=center;fillColor=#f5f5f5;fontColor=#333333;strokeColor=#666666;" vertex="1" parent="1">
          <mxGeometry x="157" y="152" width="71" height="36" as="geometry" />
        </mxCell>
        <mxCell id="w0b1r6UTEm6VGoaTHcAD-47" value="" style="endArrow=none;html=1;rounded=0;strokeColor=#000033;exitX=1;exitY=0.5;exitDx=0;exitDy=0;" edge="1" parent="1" source="w0b1r6UTEm6VGoaTHcAD-46">
          <mxGeometry relative="1" as="geometry">
            <mxPoint x="287" y="156" as="sourcePoint" />
            <mxPoint x="371" y="196" as="targetPoint" />
            <Array as="points" />
          </mxGeometry>
        </mxCell>
        <mxCell id="w0b1r6UTEm6VGoaTHcAD-48" value="Cell" style="ellipse;whiteSpace=wrap;html=1;align=center;fillColor=#f5f5f5;fontColor=#333333;strokeColor=#666666;" vertex="1" parent="1">
          <mxGeometry x="79" y="169" width="58" height="35" as="geometry" />
        </mxCell>
        <mxCell id="w0b1r6UTEm6VGoaTHcAD-49" value="Home" style="ellipse;whiteSpace=wrap;html=1;align=center;fillColor=#f5f5f5;fontColor=#333333;strokeColor=#666666;" vertex="1" parent="1">
          <mxGeometry x="83" y="125" width="54" height="35" as="geometry" />
        </mxCell>
        <mxCell id="w0b1r6UTEm6VGoaTHcAD-50" value="" style="endArrow=none;html=1;rounded=0;strokeColor=#000033;entryX=0;entryY=0.5;entryDx=0;entryDy=0;exitX=1;exitY=0.5;exitDx=0;exitDy=0;" edge="1" parent="1" source="w0b1r6UTEm6VGoaTHcAD-49" target="w0b1r6UTEm6VGoaTHcAD-46">
          <mxGeometry relative="1" as="geometry">
            <mxPoint x="203" y="116" as="sourcePoint" />
            <mxPoint x="252" y="129" as="targetPoint" />
          </mxGeometry>
        </mxCell>
        <mxCell id="w0b1r6UTEm6VGoaTHcAD-51" value="" style="endArrow=none;html=1;rounded=0;strokeColor=#000033;exitX=0.942;exitY=0.264;exitDx=0;exitDy=0;exitPerimeter=0;" edge="1" parent="1" source="w0b1r6UTEm6VGoaTHcAD-48">
          <mxGeometry relative="1" as="geometry">
            <mxPoint x="138" y="148" as="sourcePoint" />
            <mxPoint x="157" y="169" as="targetPoint" />
          </mxGeometry>
        </mxCell>
        <mxCell id="w0b1r6UTEm6VGoaTHcAD-52" value="Mode" style="ellipse;whiteSpace=wrap;html=1;align=center;fillColor=#f5f5f5;strokeColor=#666666;fontColor=#333333;" vertex="1" parent="1">
          <mxGeometry x="679" y="87" width="54" height="33" as="geometry" />
        </mxCell>
        <mxCell id="w0b1r6UTEm6VGoaTHcAD-53" value="Payment_id" style="ellipse;whiteSpace=wrap;html=1;align=center;fontStyle=4;fillColor=#f5f5f5;fontColor=#333333;strokeColor=#666666;" vertex="1" parent="1">
          <mxGeometry x="706" y="129" width="76" height="35" as="geometry" />
        </mxCell>
        <mxCell id="w0b1r6UTEm6VGoaTHcAD-54" value="Amount" style="ellipse;whiteSpace=wrap;html=1;align=center;fillColor=#f5f5f5;strokeColor=#666666;fontColor=#333333;" vertex="1" parent="1">
          <mxGeometry x="619" y="64" width="63" height="35" as="geometry" />
        </mxCell>
        <mxCell id="w0b1r6UTEm6VGoaTHcAD-55" value="Date" style="ellipse;whiteSpace=wrap;html=1;align=center;fillColor=#f5f5f5;strokeColor=#666666;fontColor=#333333;" vertex="1" parent="1">
          <mxGeometry x="579" y="111" width="63" height="33" as="geometry" />
        </mxCell>
        <mxCell id="w0b1r6UTEm6VGoaTHcAD-56" value="" style="endArrow=none;html=1;rounded=0;strokeColor=#000033;exitX=0.5;exitY=1;exitDx=0;exitDy=0;entryX=0.428;entryY=-0.019;entryDx=0;entryDy=0;entryPerimeter=0;" edge="1" parent="1" source="w0b1r6UTEm6VGoaTHcAD-55" target="w0b1r6UTEm6VGoaTHcAD-39">
          <mxGeometry relative="1" as="geometry">
            <mxPoint x="464" y="140" as="sourcePoint" />
            <mxPoint x="373" y="197" as="targetPoint" />
            <Array as="points" />
          </mxGeometry>
        </mxCell>
        <mxCell id="w0b1r6UTEm6VGoaTHcAD-57" value="" style="endArrow=none;html=1;rounded=0;strokeColor=#000033;exitX=0;exitY=1;exitDx=0;exitDy=0;" edge="1" parent="1" source="w0b1r6UTEm6VGoaTHcAD-52">
          <mxGeometry relative="1" as="geometry">
            <mxPoint x="617" y="145" as="sourcePoint" />
            <mxPoint x="659" y="198" as="targetPoint" />
            <Array as="points" />
          </mxGeometry>
        </mxCell>
        <mxCell id="w0b1r6UTEm6VGoaTHcAD-58" value="" style="endArrow=none;html=1;rounded=0;strokeColor=#000033;exitX=0;exitY=0.5;exitDx=0;exitDy=0;entryX=0.425;entryY=-0.018;entryDx=0;entryDy=0;entryPerimeter=0;" edge="1" parent="1" source="w0b1r6UTEm6VGoaTHcAD-53" target="w0b1r6UTEm6VGoaTHcAD-39">
          <mxGeometry relative="1" as="geometry">
            <mxPoint x="686" y="117" as="sourcePoint" />
            <mxPoint x="661" y="201" as="targetPoint" />
            <Array as="points" />
          </mxGeometry>
        </mxCell>
        <mxCell id="w0b1r6UTEm6VGoaTHcAD-59" value="" style="endArrow=none;html=1;rounded=0;strokeColor=#000033;exitX=0.5;exitY=1;exitDx=0;exitDy=0;" edge="1" parent="1" source="w0b1r6UTEm6VGoaTHcAD-54">
          <mxGeometry relative="1" as="geometry">
            <mxPoint x="686" y="117" as="sourcePoint" />
            <mxPoint x="659" y="198" as="targetPoint" />
            <Array as="points" />
          </mxGeometry>
        </mxCell>
        <mxCell id="w0b1r6UTEm6VGoaTHcAD-60" value="reserves" style="shape=rhombus;perimeter=rhombusPerimeter;whiteSpace=wrap;html=1;align=center;fillColor=#f5f5f5;fontColor=#333333;strokeColor=#666666;" vertex="1" parent="1">
          <mxGeometry x="160.5" y="238.5" width="69" height="46" as="geometry" />
        </mxCell>
        <mxCell id="w0b1r6UTEm6VGoaTHcAD-61" value="" style="endArrow=none;html=1;rounded=0;strokeColor=#000033;exitX=0.5;exitY=0;exitDx=0;exitDy=0;" edge="1" parent="1" source="w0b1r6UTEm6VGoaTHcAD-60">
          <mxGeometry relative="1" as="geometry">
            <mxPoint x="229" y="171" as="sourcePoint" />
            <mxPoint x="347" y="209" as="targetPoint" />
            <Array as="points">
              <mxPoint x="196" y="208" />
            </Array>
          </mxGeometry>
        </mxCell>
        <mxCell id="w0b1r6UTEm6VGoaTHcAD-64" value="Today Price" style="whiteSpace=wrap;html=1;align=center;fillColor=#f5f5f5;fontColor=#333333;strokeColor=#666666;" vertex="1" parent="1">
          <mxGeometry x="145" y="308" width="100" height="31" as="geometry" />
        </mxCell>
        <mxCell id="w0b1r6UTEm6VGoaTHcAD-65" value="Available_room" style="ellipse;whiteSpace=wrap;html=1;align=center;fillColor=#f5f5f5;fontColor=#333333;strokeColor=#666666;" vertex="1" parent="1">
          <mxGeometry x="12" y="230" width="95" height="32.5" as="geometry" />
        </mxCell>
        <mxCell id="w0b1r6UTEm6VGoaTHcAD-67" value="Date" style="ellipse;whiteSpace=wrap;html=1;align=center;fillColor=#f5f5f5;fontColor=#333333;strokeColor=#666666;" vertex="1" parent="1">
          <mxGeometry x="42" y="315" width="47" height="32" as="geometry" />
        </mxCell>
        <mxCell id="w0b1r6UTEm6VGoaTHcAD-68" value="Start_date" style="ellipse;whiteSpace=wrap;html=1;align=center;fillColor=#f5f5f5;fontColor=#333333;strokeColor=#666666;" vertex="1" parent="1">
          <mxGeometry x="12" y="373.5" width="71" height="33.5" as="geometry" />
        </mxCell>
        <mxCell id="w0b1r6UTEm6VGoaTHcAD-69" value="End_date" style="ellipse;whiteSpace=wrap;html=1;align=center;fillColor=#f5f5f5;fontColor=#333333;strokeColor=#666666;" vertex="1" parent="1">
          <mxGeometry x="93" y="362" width="71" height="32" as="geometry" />
        </mxCell>
        <mxCell id="w0b1r6UTEm6VGoaTHcAD-70" value="" style="endArrow=none;html=1;rounded=0;strokeColor=#000033;exitX=0.598;exitY=0.969;exitDx=0;exitDy=0;exitPerimeter=0;entryX=0;entryY=0.5;entryDx=0;entryDy=0;" edge="1" parent="1" source="w0b1r6UTEm6VGoaTHcAD-65" target="w0b1r6UTEm6VGoaTHcAD-64">
          <mxGeometry relative="1" as="geometry">
            <mxPoint x="135" y="185" as="sourcePoint" />
            <mxPoint x="145" y="326" as="targetPoint" />
          </mxGeometry>
        </mxCell>
        <mxCell id="w0b1r6UTEm6VGoaTHcAD-71" value="" style="endArrow=none;html=1;rounded=0;strokeColor=#000033;exitX=1;exitY=0.5;exitDx=0;exitDy=0;" edge="1" parent="1" source="w0b1r6UTEm6VGoaTHcAD-72">
          <mxGeometry relative="1" as="geometry">
            <mxPoint x="76.71500000000003" y="287.38" as="sourcePoint" />
            <mxPoint x="144" y="323" as="targetPoint" />
          </mxGeometry>
        </mxCell>
        <mxCell id="w0b1r6UTEm6VGoaTHcAD-72" value="Price" style="ellipse;whiteSpace=wrap;html=1;align=center;fontStyle=4;fillColor=#f5f5f5;fontColor=#333333;strokeColor=#666666;" vertex="1" parent="1">
          <mxGeometry x="18" y="272" width="58" height="32" as="geometry" />
        </mxCell>
        <mxCell id="w0b1r6UTEm6VGoaTHcAD-73" value="" style="endArrow=none;html=1;rounded=0;strokeColor=#000033;exitX=0.988;exitY=0.408;exitDx=0;exitDy=0;exitPerimeter=0;entryX=0;entryY=0.5;entryDx=0;entryDy=0;" edge="1" parent="1" source="w0b1r6UTEm6VGoaTHcAD-67" target="w0b1r6UTEm6VGoaTHcAD-64">
          <mxGeometry relative="1" as="geometry">
            <mxPoint x="77.71500000000003" y="288.38" as="sourcePoint" />
            <mxPoint x="145" y="324" as="targetPoint" />
          </mxGeometry>
        </mxCell>
        <mxCell id="w0b1r6UTEm6VGoaTHcAD-74" value="" style="endArrow=none;html=1;rounded=0;strokeColor=#000033;exitX=0.5;exitY=1;exitDx=0;exitDy=0;entryX=0.308;entryY=0.038;entryDx=0;entryDy=0;entryPerimeter=0;" edge="1" parent="1" source="w0b1r6UTEm6VGoaTHcAD-67" target="w0b1r6UTEm6VGoaTHcAD-69">
          <mxGeometry relative="1" as="geometry">
            <mxPoint x="105" y="330" as="sourcePoint" />
            <mxPoint x="113" y="385" as="targetPoint" />
          </mxGeometry>
        </mxCell>
        <mxCell id="w0b1r6UTEm6VGoaTHcAD-75" value="" style="endArrow=none;html=1;rounded=0;strokeColor=#000033;entryX=0.556;entryY=0;entryDx=0;entryDy=0;entryPerimeter=0;" edge="1" parent="1" target="w0b1r6UTEm6VGoaTHcAD-68">
          <mxGeometry relative="1" as="geometry">
            <mxPoint x="66" y="347" as="sourcePoint" />
            <mxPoint x="50" y="373" as="targetPoint" />
          </mxGeometry>
        </mxCell>
        <mxCell id="w0b1r6UTEm6VGoaTHcAD-76" value="" style="endArrow=none;html=1;rounded=0;strokeColor=#000033;exitX=0.5;exitY=1;exitDx=0;exitDy=0;entryX=0.5;entryY=0;entryDx=0;entryDy=0;" edge="1" parent="1" source="w0b1r6UTEm6VGoaTHcAD-60" target="w0b1r6UTEm6VGoaTHcAD-64">
          <mxGeometry relative="1" as="geometry">
            <mxPoint x="70" y="263" as="sourcePoint" />
            <mxPoint x="146" y="325" as="targetPoint" />
          </mxGeometry>
        </mxCell>
        <mxCell id="w0b1r6UTEm6VGoaTHcAD-77" value="check in&lt;div&gt;check out&lt;/div&gt;" style="shape=rhombus;perimeter=rhombusPerimeter;whiteSpace=wrap;html=1;align=center;fillColor=#f5f5f5;fontColor=#333333;strokeColor=#666666;" vertex="1" parent="1">
          <mxGeometry x="349.5" y="276" width="95" height="66" as="geometry" />
        </mxCell>
        <mxCell id="w0b1r6UTEm6VGoaTHcAD-78" value="" style="endArrow=none;html=1;rounded=0;strokeColor=#000033;" edge="1" parent="1" source="w0b1r6UTEm6VGoaTHcAD-6">
          <mxGeometry relative="1" as="geometry">
            <mxPoint x="199" y="271" as="sourcePoint" />
            <mxPoint x="397" y="277" as="targetPoint" />
          </mxGeometry>
        </mxCell>
        <mxCell id="w0b1r6UTEm6VGoaTHcAD-79" value="Room" style="whiteSpace=wrap;html=1;align=center;fillColor=#f5f5f5;fontColor=#333333;strokeColor=#666666;" vertex="1" parent="1">
          <mxGeometry x="598" y="351" width="100" height="29" as="geometry" />
        </mxCell>
        <mxCell id="w0b1r6UTEm6VGoaTHcAD-80" value="" style="endArrow=none;html=1;rounded=0;strokeColor=#000033;exitX=0.5;exitY=1;exitDx=0;exitDy=0;entryX=0;entryY=0.552;entryDx=0;entryDy=0;entryPerimeter=0;" edge="1" parent="1" source="w0b1r6UTEm6VGoaTHcAD-77" target="w0b1r6UTEm6VGoaTHcAD-79">
          <mxGeometry relative="1" as="geometry">
            <mxPoint x="198" y="271" as="sourcePoint" />
            <mxPoint x="596" y="364" as="targetPoint" />
            <Array as="points">
              <mxPoint x="397" y="364" />
            </Array>
          </mxGeometry>
        </mxCell>
        <mxCell id="w0b1r6UTEm6VGoaTHcAD-81" value="Room_no" style="ellipse;whiteSpace=wrap;html=1;align=center;fontStyle=4;fillColor=#f5f5f5;fontColor=#333333;strokeColor=#666666;" vertex="1" parent="1">
          <mxGeometry x="540" y="284" width="76" height="33" as="geometry" />
        </mxCell>
        <mxCell id="w0b1r6UTEm6VGoaTHcAD-82" value="Room_status" style="ellipse;whiteSpace=wrap;html=1;align=center;fillColor=#f5f5f5;strokeColor=#666666;fontColor=#333333;" vertex="1" parent="1">
          <mxGeometry x="590" y="249" width="89" height="35.5" as="geometry" />
        </mxCell>
        <mxCell id="w0b1r6UTEm6VGoaTHcAD-83" value="Room_type" style="ellipse;whiteSpace=wrap;html=1;align=center;fillColor=#f5f5f5;strokeColor=#666666;fontColor=#333333;" vertex="1" parent="1">
          <mxGeometry x="664" y="288" width="78" height="32" as="geometry" />
        </mxCell>
        <mxCell id="w0b1r6UTEm6VGoaTHcAD-84" value="" style="endArrow=none;html=1;rounded=0;strokeColor=#000033;exitX=0.5;exitY=1;exitDx=0;exitDy=0;entryX=0.458;entryY=-0.003;entryDx=0;entryDy=0;entryPerimeter=0;" edge="1" parent="1" source="w0b1r6UTEm6VGoaTHcAD-81" target="w0b1r6UTEm6VGoaTHcAD-79">
          <mxGeometry relative="1" as="geometry">
            <mxPoint x="398" y="225" as="sourcePoint" />
            <mxPoint x="641" y="350" as="targetPoint" />
          </mxGeometry>
        </mxCell>
        <mxCell id="w0b1r6UTEm6VGoaTHcAD-85" value="" style="endArrow=none;html=1;rounded=0;strokeColor=#000033;exitX=0.5;exitY=1;exitDx=0;exitDy=0;entryX=0.455;entryY=0.006;entryDx=0;entryDy=0;entryPerimeter=0;" edge="1" parent="1" source="w0b1r6UTEm6VGoaTHcAD-82" target="w0b1r6UTEm6VGoaTHcAD-79">
          <mxGeometry relative="1" as="geometry">
            <mxPoint x="584" y="318" as="sourcePoint" />
            <mxPoint x="644" y="350" as="targetPoint" />
          </mxGeometry>
        </mxCell>
        <mxCell id="w0b1r6UTEm6VGoaTHcAD-86" value="" style="endArrow=none;html=1;rounded=0;strokeColor=#000033;exitX=0;exitY=1;exitDx=0;exitDy=0;entryX=0.454;entryY=-0.002;entryDx=0;entryDy=0;entryPerimeter=0;" edge="1" parent="1" source="w0b1r6UTEm6VGoaTHcAD-83" target="w0b1r6UTEm6VGoaTHcAD-79">
          <mxGeometry relative="1" as="geometry">
            <mxPoint x="637" y="286" as="sourcePoint" />
            <mxPoint x="644" y="351" as="targetPoint" />
          </mxGeometry>
        </mxCell>
        <mxCell id="w0b1r6UTEm6VGoaTHcAD-87" value="owns" style="shape=rhombus;perimeter=rhombusPerimeter;whiteSpace=wrap;html=1;align=center;fillColor=#f5f5f5;fontColor=#333333;strokeColor=#666666;" vertex="1" parent="1">
          <mxGeometry x="626" y="441.5" width="65" height="48.5" as="geometry" />
        </mxCell>
        <mxCell id="w0b1r6UTEm6VGoaTHcAD-88" value="" style="endArrow=none;html=1;rounded=0;strokeColor=#000033;exitX=0.5;exitY=0;exitDx=0;exitDy=0;entryX=0.268;entryY=0.106;entryDx=0;entryDy=0;entryPerimeter=0;" edge="1" parent="1" source="w0b1r6UTEm6VGoaTHcAD-87" target="w0b1r6UTEm6VGoaTHcAD-125">
          <mxGeometry relative="1" as="geometry">
            <mxPoint x="656" y="435" as="sourcePoint" />
            <mxPoint x="652" y="374" as="targetPoint" />
            <Array as="points" />
          </mxGeometry>
        </mxCell>
        <mxCell id="w0b1r6UTEm6VGoaTHcAD-89" value="Hotel" style="whiteSpace=wrap;html=1;align=center;fillColor=#f5f5f5;fontColor=#333333;strokeColor=#666666;" vertex="1" parent="1">
          <mxGeometry x="403" y="449" width="100" height="30" as="geometry" />
        </mxCell>
        <mxCell id="w0b1r6UTEm6VGoaTHcAD-90" value="" style="endArrow=none;html=1;rounded=0;strokeColor=#000033;exitX=0;exitY=0.5;exitDx=0;exitDy=0;entryX=1;entryY=0.5;entryDx=0;entryDy=0;" edge="1" parent="1" source="w0b1r6UTEm6VGoaTHcAD-87" target="w0b1r6UTEm6VGoaTHcAD-89">
          <mxGeometry relative="1" as="geometry">
            <mxPoint x="657" y="439" as="sourcePoint" />
            <mxPoint x="656" y="374" as="targetPoint" />
          </mxGeometry>
        </mxCell>
        <mxCell id="w0b1r6UTEm6VGoaTHcAD-91" value="Hotel_id" style="ellipse;whiteSpace=wrap;html=1;align=center;fontStyle=4;fillColor=#f5f5f5;fontColor=#333333;strokeColor=#666666;" vertex="1" parent="1">
          <mxGeometry x="315" y="384" width="85" height="30" as="geometry" />
        </mxCell>
        <mxCell id="w0b1r6UTEm6VGoaTHcAD-92" value="Location" style="ellipse;whiteSpace=wrap;html=1;align=center;fillColor=#f5f5f5;strokeColor=#666666;fontColor=#333333;" vertex="1" parent="1">
          <mxGeometry x="400" y="371" width="87" height="27" as="geometry" />
        </mxCell>
        <mxCell id="w0b1r6UTEm6VGoaTHcAD-93" value="Hotel_name" style="ellipse;whiteSpace=wrap;html=1;align=center;fillColor=#f5f5f5;strokeColor=#666666;fontColor=#333333;" vertex="1" parent="1">
          <mxGeometry x="465.5" y="400" width="92.5" height="29" as="geometry" />
        </mxCell>
        <mxCell id="w0b1r6UTEm6VGoaTHcAD-94" value="" style="endArrow=none;html=1;rounded=0;strokeColor=#000033;exitX=0.751;exitY=0.928;exitDx=0;exitDy=0;entryX=0.5;entryY=0;entryDx=0;entryDy=0;exitPerimeter=0;" edge="1" parent="1" source="w0b1r6UTEm6VGoaTHcAD-91" target="w0b1r6UTEm6VGoaTHcAD-89">
          <mxGeometry relative="1" as="geometry">
            <mxPoint x="628" y="462" as="sourcePoint" />
            <mxPoint x="504" y="462" as="targetPoint" />
          </mxGeometry>
        </mxCell>
        <mxCell id="w0b1r6UTEm6VGoaTHcAD-95" value="" style="endArrow=none;html=1;rounded=0;strokeColor=#000033;exitX=0.433;exitY=0.988;exitDx=0;exitDy=0;exitPerimeter=0;entryX=0.5;entryY=0;entryDx=0;entryDy=0;" edge="1" parent="1" source="w0b1r6UTEm6VGoaTHcAD-92" target="w0b1r6UTEm6VGoaTHcAD-89">
          <mxGeometry relative="1" as="geometry">
            <mxPoint x="383" y="413" as="sourcePoint" />
            <mxPoint x="452" y="449" as="targetPoint" />
          </mxGeometry>
        </mxCell>
        <mxCell id="w0b1r6UTEm6VGoaTHcAD-96" value="" style="endArrow=none;html=1;rounded=0;strokeColor=#000033;exitX=0;exitY=1;exitDx=0;exitDy=0;entryX=0.5;entryY=0;entryDx=0;entryDy=0;" edge="1" parent="1" source="w0b1r6UTEm6VGoaTHcAD-93" target="w0b1r6UTEm6VGoaTHcAD-89">
          <mxGeometry relative="1" as="geometry">
            <mxPoint x="439" y="397" as="sourcePoint" />
            <mxPoint x="455" y="451" as="targetPoint" />
          </mxGeometry>
        </mxCell>
        <mxCell id="w0b1r6UTEm6VGoaTHcAD-97" value="works for" style="shape=rhombus;perimeter=rhombusPerimeter;whiteSpace=wrap;html=1;align=center;fillColor=#f5f5f5;fontColor=#333333;strokeColor=#666666;" vertex="1" parent="1">
          <mxGeometry x="127" y="440" width="68.5" height="45" as="geometry" />
        </mxCell>
        <mxCell id="w0b1r6UTEm6VGoaTHcAD-98" value="" style="endArrow=none;html=1;rounded=0;strokeColor=#000033;exitX=1;exitY=0.5;exitDx=0;exitDy=0;entryX=0;entryY=0.5;entryDx=0;entryDy=0;" edge="1" parent="1" source="w0b1r6UTEm6VGoaTHcAD-97" target="w0b1r6UTEm6VGoaTHcAD-89">
          <mxGeometry relative="1" as="geometry">
            <mxPoint x="628" y="462" as="sourcePoint" />
            <mxPoint x="504" y="462" as="targetPoint" />
          </mxGeometry>
        </mxCell>
        <mxCell id="w0b1r6UTEm6VGoaTHcAD-99" value="Staff" style="whiteSpace=wrap;html=1;align=center;fillColor=#f5f5f5;fontColor=#333333;strokeColor=#666666;" vertex="1" parent="1">
          <mxGeometry x="112" y="547" width="100" height="29" as="geometry" />
        </mxCell>
        <mxCell id="w0b1r6UTEm6VGoaTHcAD-100" value="" style="endArrow=none;html=1;rounded=0;strokeColor=#000033;exitX=0.5;exitY=1;exitDx=0;exitDy=0;entryX=0.5;entryY=0;entryDx=0;entryDy=0;" edge="1" parent="1" source="w0b1r6UTEm6VGoaTHcAD-97" target="w0b1r6UTEm6VGoaTHcAD-99">
          <mxGeometry relative="1" as="geometry">
            <mxPoint x="197" y="464" as="sourcePoint" />
            <mxPoint x="159" y="552" as="targetPoint" />
          </mxGeometry>
        </mxCell>
        <mxCell id="w0b1r6UTEm6VGoaTHcAD-101" value="Staff_id" style="ellipse;whiteSpace=wrap;html=1;align=center;fontStyle=4;fillColor=#f5f5f5;fontColor=#333333;strokeColor=#666666;" vertex="1" parent="1">
          <mxGeometry x="30" y="602" width="75" height="26" as="geometry" />
        </mxCell>
        <mxCell id="w0b1r6UTEm6VGoaTHcAD-102" value="Phone_no" style="ellipse;shape=doubleEllipse;margin=3;whiteSpace=wrap;html=1;align=center;fillColor=#f5f5f5;fontColor=#333333;strokeColor=#666666;" vertex="1" parent="1">
          <mxGeometry x="64" y="633" width="71" height="36" as="geometry" />
        </mxCell>
        <mxCell id="w0b1r6UTEm6VGoaTHcAD-103" value="Home" style="ellipse;whiteSpace=wrap;html=1;align=center;fillColor=#f5f5f5;fontColor=#333333;strokeColor=#666666;" vertex="1" parent="1">
          <mxGeometry x="21" y="688" width="64" height="29" as="geometry" />
        </mxCell>
        <mxCell id="w0b1r6UTEm6VGoaTHcAD-104" value="Cell" style="ellipse;whiteSpace=wrap;html=1;align=center;fillColor=#f5f5f5;fontColor=#333333;strokeColor=#666666;" vertex="1" parent="1">
          <mxGeometry x="102" y="692" width="66" height="30" as="geometry" />
        </mxCell>
        <mxCell id="w0b1r6UTEm6VGoaTHcAD-105" value="Staff_name" style="ellipse;whiteSpace=wrap;html=1;align=center;fillColor=#f5f5f5;fontColor=#333333;strokeColor=#666666;" vertex="1" parent="1">
          <mxGeometry x="133" y="657" width="77" height="31" as="geometry" />
        </mxCell>
        <mxCell id="w0b1r6UTEm6VGoaTHcAD-106" value="Job_description" style="ellipse;whiteSpace=wrap;html=1;align=center;fillColor=#f5f5f5;fontColor=#333333;strokeColor=#666666;" vertex="1" parent="1">
          <mxGeometry x="210" y="618" width="99" height="31" as="geometry" />
        </mxCell>
        <mxCell id="w0b1r6UTEm6VGoaTHcAD-107" value="Address" style="ellipse;whiteSpace=wrap;html=1;align=center;fillColor=#f5f5f5;fontColor=#333333;strokeColor=#666666;" vertex="1" parent="1">
          <mxGeometry x="222" y="657" width="72" height="30" as="geometry" />
        </mxCell>
        <mxCell id="w0b1r6UTEm6VGoaTHcAD-108" value="" style="endArrow=none;html=1;rounded=0;strokeColor=#000033;exitX=1;exitY=0;exitDx=0;exitDy=0;entryX=0.5;entryY=1;entryDx=0;entryDy=0;" edge="1" parent="1" source="w0b1r6UTEm6VGoaTHcAD-101" target="w0b1r6UTEm6VGoaTHcAD-99">
          <mxGeometry relative="1" as="geometry">
            <mxPoint x="162" y="486" as="sourcePoint" />
            <mxPoint x="163" y="554" as="targetPoint" />
          </mxGeometry>
        </mxCell>
        <mxCell id="w0b1r6UTEm6VGoaTHcAD-109" value="" style="endArrow=none;html=1;rounded=0;strokeColor=#000033;exitX=0.601;exitY=0.005;exitDx=0;exitDy=0;entryX=0.5;entryY=1;entryDx=0;entryDy=0;exitPerimeter=0;" edge="1" parent="1" source="w0b1r6UTEm6VGoaTHcAD-102" target="w0b1r6UTEm6VGoaTHcAD-99">
          <mxGeometry relative="1" as="geometry">
            <mxPoint x="96" y="609" as="sourcePoint" />
            <mxPoint x="163" y="577" as="targetPoint" />
          </mxGeometry>
        </mxCell>
        <mxCell id="w0b1r6UTEm6VGoaTHcAD-110" value="" style="endArrow=none;html=1;rounded=0;strokeColor=#000033;exitX=0;exitY=0;exitDx=0;exitDy=0;entryX=0.5;entryY=1;entryDx=0;entryDy=0;" edge="1" parent="1" source="w0b1r6UTEm6VGoaTHcAD-106" target="w0b1r6UTEm6VGoaTHcAD-99">
          <mxGeometry relative="1" as="geometry">
            <mxPoint x="109" y="634" as="sourcePoint" />
            <mxPoint x="164" y="578" as="targetPoint" />
          </mxGeometry>
        </mxCell>
        <mxCell id="w0b1r6UTEm6VGoaTHcAD-111" value="" style="endArrow=none;html=1;rounded=0;strokeColor=#000033;exitX=0.288;exitY=0.038;exitDx=0;exitDy=0;entryX=0.5;entryY=1;entryDx=0;entryDy=0;exitPerimeter=0;" edge="1" parent="1" source="w0b1r6UTEm6VGoaTHcAD-105" target="w0b1r6UTEm6VGoaTHcAD-99">
          <mxGeometry relative="1" as="geometry">
            <mxPoint x="225" y="625" as="sourcePoint" />
            <mxPoint x="165" y="579" as="targetPoint" />
          </mxGeometry>
        </mxCell>
        <mxCell id="w0b1r6UTEm6VGoaTHcAD-112" value="" style="endArrow=none;html=1;rounded=0;strokeColor=#000033;exitX=0.041;exitY=0.287;exitDx=0;exitDy=0;entryX=0.5;entryY=1;entryDx=0;entryDy=0;exitPerimeter=0;" edge="1" parent="1" source="w0b1r6UTEm6VGoaTHcAD-107" target="w0b1r6UTEm6VGoaTHcAD-99">
          <mxGeometry relative="1" as="geometry">
            <mxPoint x="159" y="657" as="sourcePoint" />
            <mxPoint x="161" y="576" as="targetPoint" />
          </mxGeometry>
        </mxCell>
        <mxCell id="w0b1r6UTEm6VGoaTHcAD-113" value="" style="endArrow=none;html=1;rounded=0;strokeColor=#000033;entryX=0.638;entryY=0.016;entryDx=0;entryDy=0;entryPerimeter=0;exitX=0.297;exitY=0.954;exitDx=0;exitDy=0;exitPerimeter=0;" edge="1" parent="1" source="w0b1r6UTEm6VGoaTHcAD-102" target="w0b1r6UTEm6VGoaTHcAD-103">
          <mxGeometry relative="1" as="geometry">
            <mxPoint x="109" y="634" as="sourcePoint" />
            <mxPoint x="164" y="578" as="targetPoint" />
          </mxGeometry>
        </mxCell>
        <mxCell id="w0b1r6UTEm6VGoaTHcAD-114" value="" style="endArrow=none;html=1;rounded=0;strokeColor=#000033;entryX=0;entryY=0;entryDx=0;entryDy=0;exitX=0.291;exitY=0.954;exitDx=0;exitDy=0;exitPerimeter=0;" edge="1" parent="1" source="w0b1r6UTEm6VGoaTHcAD-102" target="w0b1r6UTEm6VGoaTHcAD-104">
          <mxGeometry relative="1" as="geometry">
            <mxPoint x="80" y="667" as="sourcePoint" />
            <mxPoint x="47" y="690" as="targetPoint" />
          </mxGeometry>
        </mxCell>
        <mxCell id="w0b1r6UTEm6VGoaTHcAD-119" value="&lt;font color=&quot;#000033&quot;&gt;1&lt;/font&gt;" style="text;html=1;align=center;verticalAlign=middle;resizable=0;points=[];autosize=1;strokeColor=none;fillColor=none;" vertex="1" parent="1">
          <mxGeometry x="328" y="204" width="25" height="26" as="geometry" />
        </mxCell>
        <mxCell id="w0b1r6UTEm6VGoaTHcAD-120" value="&lt;span style=&quot;color: rgb(0, 0, 51); font-family: Helvetica; font-size: 12px; font-style: normal; font-variant-ligatures: normal; font-variant-caps: normal; font-weight: 400; letter-spacing: normal; orphans: 2; text-align: center; text-indent: 0px; text-transform: none; widows: 2; word-spacing: 0px; -webkit-text-stroke-width: 0px; white-space: nowrap; text-decoration-thickness: initial; text-decoration-style: initial; text-decoration-color: initial; float: none; display: inline !important; background-color: rgb(255, 255, 255);&quot;&gt;&amp;nbsp;M&lt;/span&gt;" style="text;whiteSpace=wrap;html=1;" vertex="1" parent="1">
          <mxGeometry x="195.5" y="284.4961538461538" width="36" height="27" as="geometry" />
        </mxCell>
        <mxCell id="w0b1r6UTEm6VGoaTHcAD-121" value="&lt;div&gt;&lt;span style=&quot;color: rgb(0, 0, 51); background-color: rgb(255, 255, 255);&quot;&gt;1&lt;/span&gt;&lt;br&gt;&lt;/div&gt;" style="text;html=1;align=center;verticalAlign=middle;resizable=0;points=[];autosize=1;strokeColor=none;fillColor=none;" vertex="1" parent="1">
          <mxGeometry x="440.5" y="207" width="25" height="26" as="geometry" />
        </mxCell>
        <mxCell id="w0b1r6UTEm6VGoaTHcAD-122" value="&lt;div&gt;&lt;span style=&quot;color: rgb(0, 0, 51); background-color: rgb(255, 255, 255);&quot;&gt;M&lt;/span&gt;&lt;br&gt;&lt;/div&gt;" style="text;html=1;align=center;verticalAlign=middle;resizable=0;points=[];autosize=1;strokeColor=none;fillColor=none;" vertex="1" parent="1">
          <mxGeometry x="593" y="207" width="28" height="26" as="geometry" />
        </mxCell>
        <mxCell id="w0b1r6UTEm6VGoaTHcAD-123" value="&lt;div&gt;&lt;span style=&quot;color: rgb(0, 0, 51); background-color: rgb(255, 255, 255);&quot;&gt;M&lt;/span&gt;&lt;br&gt;&lt;/div&gt;" style="text;html=1;align=center;verticalAlign=middle;resizable=0;points=[];autosize=1;strokeColor=none;fillColor=none;" vertex="1" parent="1">
          <mxGeometry x="391" y="228" width="28" height="26" as="geometry" />
        </mxCell>
        <mxCell id="w0b1r6UTEm6VGoaTHcAD-124" value="&lt;div&gt;&lt;span style=&quot;color: rgb(0, 0, 51); background-color: rgb(255, 255, 255);&quot;&gt;M&lt;/span&gt;&lt;br&gt;&lt;/div&gt;" style="text;html=1;align=center;verticalAlign=middle;resizable=0;points=[];autosize=1;strokeColor=none;fillColor=none;" vertex="1" parent="1">
          <mxGeometry x="575" y="345" width="28" height="26" as="geometry" />
        </mxCell>
        <mxCell id="w0b1r6UTEm6VGoaTHcAD-125" value="&lt;div&gt;&lt;span style=&quot;color: rgb(0, 0, 51); background-color: rgb(255, 255, 255);&quot;&gt;&amp;nbsp;M&lt;/span&gt;&lt;br&gt;&lt;/div&gt;" style="text;html=1;align=center;verticalAlign=middle;resizable=0;points=[];autosize=1;strokeColor=none;fillColor=none;" vertex="1" parent="1">
          <mxGeometry x="650" y="377.25" width="31" height="26" as="geometry" />
        </mxCell>
        <mxCell id="w0b1r6UTEm6VGoaTHcAD-126" value="&lt;div&gt;&lt;span style=&quot;color: rgb(0, 0, 51); background-color: rgb(255, 255, 255);&quot;&gt;1&lt;/span&gt;&lt;br&gt;&lt;/div&gt;" style="text;html=1;align=center;verticalAlign=middle;resizable=0;points=[];autosize=1;strokeColor=none;fillColor=none;" vertex="1" parent="1">
          <mxGeometry x="499.25" y="459" width="25" height="26" as="geometry" />
        </mxCell>
        <mxCell id="w0b1r6UTEm6VGoaTHcAD-127" value="&lt;div&gt;&lt;span style=&quot;color: rgb(0, 0, 51); background-color: rgb(255, 255, 255);&quot;&gt;1&lt;/span&gt;&lt;br&gt;&lt;/div&gt;" style="text;html=1;align=center;verticalAlign=middle;resizable=0;points=[];autosize=1;strokeColor=none;fillColor=none;" vertex="1" parent="1">
          <mxGeometry x="378" y="459" width="25" height="26" as="geometry" />
        </mxCell>
        <mxCell id="w0b1r6UTEm6VGoaTHcAD-128" value="&lt;div&gt;&lt;span style=&quot;color: rgb(0, 0, 51); background-color: rgb(255, 255, 255);&quot;&gt;M&lt;/span&gt;&lt;br&gt;&lt;/div&gt;" style="text;html=1;align=center;verticalAlign=middle;resizable=0;points=[];autosize=1;strokeColor=none;fillColor=none;" vertex="1" parent="1">
          <mxGeometry x="157" y="526" width="28" height="26" as="geometry" />
        </mxCell>
      </root>
    </mxGraphModel>
  </diagram>
</mxfile>
